<?xml version="1.0" standalone="no"?>
<!DOCTYPE svg PUBLIC "-//W3C//DTD SVG 20010904//EN"
 "http://www.w3.org/TR/2001/REC-SVG-20010904/DTD/svg10.dtd">
<svg version="1.0" xmlns="http://www.w3.org/2000/svg"
 width="742.000000pt" height="960.000000pt" viewBox="0 0 742.000000 960.000000"
 preserveAspectRatio="xMidYMid meet">
<metadata>
Created by potrace 1.13, written by Peter Selinger 2001-2015
</metadata>
<g transform="translate(0.000000,960.000000) scale(0.100000,-0.100000)"
fill="#000000" stroke="none">
<path d="M3640 8369 c-30 -5 -239 -52 -465 -104 -1365 -314 -1301 -297 -1399
-364 -49 -34 -87 -78 -108 -126 -11 -24 -14 -422 -18 -2133 l-5 -2103 -270 -2
-270 -2 0 -40 0 -40 2610 0 2610 0 0 40 0 40 -235 2 -235 2 -5 2103 -5 2103
-28 52 c-33 64 -103 121 -189 155 -34 14 -164 49 -288 77 -124 29 -486 113
-805 188 -731 170 -756 174 -895 152z m188 -219 c80 -11 260 -51 737 -166 171
-41 416 -99 545 -129 240 -55 293 -71 349 -100 54 -28 113 -88 137 -140 l24
-50 0 -2012 c0 -1335 -3 -2013 -10 -2014 -5 -1 -22 -1 -37 -2 l-28 -1 -5 2014
c-5 1894 -6 2017 -22 2047 -42 77 -109 106 -399 173 -123 28 -354 83 -514 121
-707 170 -715 172 -826 177 -72 3 -129 -1 -180 -11 -179 -37 -1409 -331 -1459
-348 -64 -22 -124 -62 -154 -102 l-21 -28 -5 -2022 -5 -2021 -27 1 c-16 1 -32
1 -38 2 -15 1 -14 4002 1 4056 17 61 107 144 194 179 71 28 1404 348 1550 371
100 16 104 16 193 5z m-425 -660 c15 -12 31 -38 37 -58 6 -24 10 -393 10
-1069 l0 -1033 228 2 c245 2 293 -5 331 -46 50 -53 32 -159 -33 -194 -28 -15
-89 -17 -651 -20 -341 -2 -644 0 -673 3 -64 8 -107 41 -123 95 -15 48 -6 85
30 120 36 37 86 43 356 44 l210 1 3 929 3 928 -38 -6 c-21 -4 -96 -21 -168
-38 -164 -39 -269 -47 -313 -24 -35 18 -62 62 -62 99 0 35 40 90 80 109 19 9
159 47 310 84 449 109 423 105 463 74z m702 -1235 c39 -8 108 -33 155 -56 70
-34 101 -58 175 -133 170 -173 260 -379 301 -690 20 -154 15 -547 -9 -674 -63
-330 -198 -571 -393 -701 -109 -74 -208 -103 -364 -109 -149 -5 -214 8 -336
68 -269 132 -456 488 -481 918 l-6 103 154 -3 154 -3 12 -129 c24 -258 74
-419 168 -552 99 -138 264 -196 425 -148 182 54 302 248 362 584 21 120 17
598 -6 725 -50 280 -161 472 -313 543 -50 23 -71 27 -153 27 -82 0 -103 -4
-153 -27 -73 -35 -161 -122 -205 -206 -18 -34 -35 -62 -38 -62 -2 0 -4 95 -4
210 l0 210 46 30 c49 31 140 65 215 79 70 14 218 12 294 -4z"/>
<path d="M1500 2795 l0 -325 106 0 c172 0 204 27 204 175 0 93 -14 136 -52
156 -19 10 -19 12 -5 21 32 17 47 64 47 142 0 65 -3 78 -26 105 -32 39 -77 51
-186 51 l-88 0 0 -325z m191 218 c9 -9 14 -40 14 -75 0 -68 -16 -88 -72 -88
l-33 0 0 90 0 90 39 0 c24 0 44 -6 52 -17z m10 -270 c9 -10 14 -42 14 -90 0
-86 -13 -103 -77 -103 l-38 0 0 105 0 105 44 0 c28 0 48 -6 57 -17z"/>
<path d="M1916 2908 c62 -206 64 -217 64 -325 l0 -113 50 0 50 0 0 105 c0 100
3 117 60 308 33 111 63 210 66 220 5 16 0 18 -42 15 l-47 -3 -36 -140 c-19
-77 -37 -142 -38 -144 -7 -10 -16 15 -51 145 l-37 139 -51 3 -51 3 63 -213z"/>
<path d="M2250 3075 l0 -45 50 0 50 0 0 -280 0 -280 50 0 50 0 0 280 0 280 55
0 55 0 0 45 0 45 -155 0 -155 0 0 -45z"/>
<path d="M2630 2795 l0 -325 138 0 137 0 0 40 0 40 -87 0 -88 0 0 100 0 100
70 0 70 0 0 45 0 45 -70 0 -70 0 0 95 0 95 88 0 87 0 -1 42 -1 43 -137 3 -136
3 0 -326z"/>
<path d="M3235 3108 c-2 -7 -25 -143 -50 -303 -25 -159 -48 -300 -50 -312 -5
-21 -2 -23 39 -23 l44 0 7 43 c12 79 11 77 75 77 32 0 62 -5 65 -11 4 -5 10
-31 13 -57 l7 -47 48 -3 c35 -2 47 0 47 11 0 15 -86 558 -96 610 -5 26 -7 27
-75 27 -47 0 -71 -4 -74 -12z m94 -260 c29 -190 31 -178 -30 -178 l-51 0 5 33
c4 17 13 84 22 147 17 120 23 146 29 139 3 -2 14 -66 25 -141z"/>
<path d="M3610 3098 c-53 -36 -59 -66 -59 -308 -1 -188 2 -220 18 -256 44 -97
212 -100 263 -4 12 24 18 56 18 105 l0 70 -45 0 -45 0 0 -62 c0 -70 -15 -93
-59 -93 -49 0 -51 8 -51 241 0 214 0 218 22 233 30 21 44 20 68 -4 15 -15 20
-33 20 -70 l0 -50 45 0 45 0 0 55 c0 112 -39 158 -138 163 -58 3 -72 0 -102
-20z"/>
<path d="M4016 3108 c-3 -7 -25 -146 -50 -308 -26 -162 -48 -303 -50 -312 -3
-15 3 -18 39 -18 40 0 44 2 49 30 3 17 9 44 12 60 6 30 6 30 69 30 l64 0 6
-37 c14 -87 11 -83 65 -83 35 0 48 4 45 13 -2 6 -25 143 -50 302 -26 160 -49
300 -52 313 -5 20 -11 22 -74 22 -47 0 -71 -4 -73 -12z m94 -258 c11 -74 22
-145 25 -157 5 -22 2 -23 -51 -23 -55 0 -56 0 -50 28 3 15 12 77 21 137 18
128 24 159 30 153 2 -2 13 -64 25 -138z"/>
<path d="M4340 2796 l0 -326 108 0 c90 0 112 3 140 20 56 34 62 64 62 302 0
183 -2 218 -18 247 -32 63 -60 75 -183 79 l-109 4 0 -326z m194 218 c14 -13
16 -48 16 -224 0 -204 0 -209 -22 -224 -12 -9 -37 -16 -55 -16 l-33 0 0 240 0
240 39 0 c23 0 46 -7 55 -16z"/>
<path d="M4740 2795 l0 -325 140 0 140 0 0 40 0 40 -90 0 -90 0 0 100 0 100
70 0 70 0 0 45 0 45 -70 0 -70 0 0 95 0 95 91 0 90 0 -3 43 -3 42 -137 3 -138
3 0 -326z"/>
<path d="M5100 2795 l0 -325 45 0 45 0 0 222 c0 122 2 219 4 217 2 -2 18 -89
35 -194 44 -272 35 -245 87 -245 52 0 44 -23 84 244 16 109 31 201 34 204 4 3
6 -97 6 -221 l0 -227 45 0 45 0 0 325 0 325 -68 0 -69 0 -33 -225 c-19 -124
-37 -225 -40 -225 -4 0 -21 91 -39 203 -18 111 -35 212 -38 225 -5 20 -11 22
-74 22 l-69 0 0 -325z"/>
<path d="M5600 3113 c0 -3 29 -104 65 -223 61 -205 65 -222 65 -318 l0 -102
45 0 45 0 0 100 c0 93 4 112 65 316 36 119 65 221 65 226 0 4 -20 8 -44 8
l-43 0 -39 -145 c-21 -80 -41 -145 -44 -145 -3 0 -14 30 -23 68 -10 37 -27
102 -39 145 l-20 77 -49 0 c-27 0 -49 -3 -49 -7z"/>
<path d="M1100 2090 l0 -40 274 0 274 0 4 -98 c3 -87 7 -104 34 -152 40 -70
124 -130 232 -164 42 -13 442 -108 887 -211 871 -202 924 -211 1071 -186 77
14 1384 314 1590 366 165 41 247 80 307 144 55 59 77 124 77 228 l0 73 240 0
240 0 0 40 0 40 -2615 0 -2615 0 0 -40z m870 -55 c0 -28 70 -92 129 -119 32
-14 182 -55 332 -90 151 -36 475 -112 721 -170 246 -58 480 -111 520 -116 120
-17 113 -19 863 159 768 181 803 190 870 220 60 27 125 88 125 116 0 11 12 15
40 15 45 0 49 -10 26 -63 -31 -74 -122 -137 -251 -176 -147 -44 -1430 -341
-1519 -352 -123 -15 -155 -10 -796 142 -991 233 -995 235 -1075 314 -37 38
-78 112 -69 127 3 4 23 8 45 8 28 0 39 -4 39 -15z"/>
</g>
</svg>
