<?xml version="1.0" standalone="no"?>
<!DOCTYPE svg PUBLIC "-//W3C//DTD SVG 20010904//EN"
 "http://www.w3.org/TR/2001/REC-SVG-20010904/DTD/svg10.dtd">
<svg version="1.0" xmlns="http://www.w3.org/2000/svg"
 width="1523.000000pt" height="1523.000000pt" viewBox="0 0 1523.000000 1523.000000"
 preserveAspectRatio="xMidYMid meet">
<metadata>
Created by potrace 1.13, written by Peter Selinger 2001-2015
</metadata>
<g transform="translate(0.000000,1523.000000) scale(0.100000,-0.100000)"
fill="#000000" stroke="none">
<path d="M0 9540 l0 -110 7610 0 7610 0 0 110 0 110 -7610 0 -7610 0 0 -110z"/>
<path d="M7470 8412 c-30 -10 -69 -26 -86 -35 -40 -21 -121 -110 -141 -156
-45 -106 -46 -112 -50 -645 -5 -544 1 -663 39 -761 31 -81 109 -164 190 -201
60 -28 70 -29 203 -29 l141 0 76 38 c86 42 138 93 173 172 36 79 45 145 45
315 l0 160 -130 0 -130 0 0 -160 c0 -177 -8 -211 -56 -249 -26 -20 -38 -22
-107 -19 -71 3 -81 6 -103 31 -12 15 -28 44 -33 65 -7 23 -11 231 -11 572 0
499 2 538 19 576 29 65 62 84 141 84 54 0 73 -4 95 -22 45 -35 55 -74 55 -213
l0 -125 130 0 130 0 0 133 c0 252 -60 371 -230 451 -60 28 -74 31 -185 33 -95
2 -132 -1 -175 -15z"/>
<path d="M1500 7504 l0 -917 278 6 c296 6 343 12 425 60 87 51 140 126 168
237 9 37 14 114 14 235 -1 156 -4 189 -22 250 -25 81 -72 142 -139 181 l-44
26 42 28 c24 15 53 38 65 51 64 71 95 232 75 404 -14 128 -44 197 -109 254
-92 81 -195 101 -540 101 l-213 0 0 -916z m501 651 c54 -28 64 -64 64 -220 0
-204 -23 -234 -182 -243 l-83 -5 0 248 0 248 86 -7 c47 -3 99 -13 115 -21z
m37 -765 c34 -15 48 -29 65 -67 20 -43 22 -64 22 -208 0 -236 -16 -255 -212
-263 l-113 -5 0 282 0 281 98 0 c74 0 107 -5 140 -20z"/>
<path d="M2494 8403 c3 -10 84 -284 181 -610 l175 -592 0 -306 0 -305 140 0
140 0 0 306 0 307 175 591 c97 325 178 599 181 609 5 16 -5 17 -124 17 l-130
0 -102 -412 c-57 -227 -106 -416 -109 -420 -3 -4 -57 182 -120 413 l-114 419
-149 0 c-138 0 -149 -1 -144 -17z"/>
<path d="M3590 8300 l0 -119 153 -3 152 -3 3 -792 2 -793 140 0 140 0 0 785 0
785 150 0 150 0 0 130 0 130 -445 0 -445 0 0 -120z"/>
<path d="M4660 7505 l0 -915 385 0 385 0 0 130 0 130 -245 0 -245 0 0 270 0
270 190 0 190 0 0 130 0 130 -190 0 -190 0 0 255 0 255 245 0 245 0 0 130 0
130 -385 0 -385 0 0 -915z"/>
<path d="M6316 8408 c-3 -7 -66 -409 -140 -893 -75 -484 -139 -890 -141 -902
-5 -23 -5 -23 125 -23 126 0 130 1 135 23 2 12 14 76 25 142 11 66 23 130 25
143 5 22 7 22 189 22 l183 0 28 -165 28 -165 139 0 c104 0 138 3 138 13 0 11
-304 1732 -316 1790 l-6 27 -204 0 c-155 0 -206 -3 -208 -12z m294 -743 c33
-236 63 -442 66 -457 l6 -28 -146 0 c-101 0 -146 3 -146 11 0 16 139 869 146
899 4 14 8 21 10 15 2 -5 30 -203 64 -440z"/>
<path d="M8485 8398 c-11 -51 -275 -1765 -275 -1786 0 -22 1 -23 127 -20 l127
3 22 130 c13 72 26 145 29 163 l6 32 183 0 184 0 17 -97 c9 -54 22 -127 29
-163 l11 -65 138 -3 c126 -2 137 -1 137 15 0 10 -63 421 -140 913 -77 492
-140 896 -140 898 0 1 -101 2 -225 2 l-225 0 -5 -22z m315 -723 c33 -237 63
-445 67 -462 l5 -33 -146 0 c-89 0 -146 4 -146 10 0 13 138 868 146 899 3 13
7 22 9 20 2 -2 31 -198 65 -434z"/>
<path d="M9420 7501 l0 -922 303 3 302 3 65 31 c115 56 176 138 205 275 21
100 22 1111 1 1210 -34 159 -119 253 -271 297 -36 10 -129 15 -327 19 l-278 5
0 -921z m548 632 c15 -11 35 -35 45 -54 16 -31 17 -75 15 -584 -3 -507 -4
-553 -21 -578 -35 -53 -60 -62 -186 -62 l-116 0 -3 640 c-1 352 0 646 3 654 9
23 228 10 263 -16z"/>
<path d="M10550 7505 l0 -915 385 0 385 0 0 130 0 130 -247 2 -248 3 -3 268
-2 267 200 0 200 0 0 130 0 130 -197 2 -198 3 0 250 0 250 248 3 247 2 0 130
0 130 -385 0 -385 0 0 -915z"/>
<path d="M11560 7505 l0 -915 120 0 120 0 1 648 1 647 99 -555 c54 -305 106
-597 115 -647 l16 -93 128 0 128 0 6 28 c3 15 47 308 96 651 50 344 92 627 95
629 3 3 5 -290 5 -651 l0 -657 130 0 130 0 0 915 0 915 -198 0 -197 0 -95
-646 c-56 -384 -97 -638 -102 -627 -4 10 -48 272 -98 583 -50 311 -95 593
-101 628 l-11 62 -194 0 -194 0 0 -915z"/>
<path d="M12930 8414 c0 -27 356 -1201 366 -1210 11 -9 14 -69 14 -313 l0
-301 140 0 140 0 0 311 0 312 171 576 c94 317 175 589 180 604 l8 28 -131 -3
-131 -3 -113 -413 c-61 -228 -114 -415 -116 -418 -2 -2 -56 185 -119 416
l-114 420 -147 0 c-82 0 -148 -3 -148 -6z"/>
<path d="M0 5585 l0 -115 7610 0 7610 0 0 115 0 115 -7610 0 -7610 0 0 -115z"/>
</g>
</svg>
