<?xml version="1.0" standalone="no"?>
<!DOCTYPE svg PUBLIC "-//W3C//DTD SVG 20010904//EN"
 "http://www.w3.org/TR/2001/REC-SVG-20010904/DTD/svg10.dtd">
<svg version="1.0" xmlns="http://www.w3.org/2000/svg"
 width="554.000000pt" height="725.000000pt" viewBox="0 0 554.000000 725.000000"
 preserveAspectRatio="xMidYMid meet">
<metadata>
Created by potrace 1.13, written by Peter Selinger 2001-2015
</metadata>
<g transform="translate(0.000000,725.000000) scale(0.100000,-0.100000)"
fill="#000000" stroke="none">
<path d="M2670 7195 c-41 -7 -273 -59 -515 -115 -242 -56 -603 -139 -801 -185
-219 -50 -391 -96 -437 -115 -90 -37 -157 -93 -189 -158 l-23 -47 -5 -2103 -5
-2103 -270 -2 -270 -2 0 -40 0 -40 2605 0 2605 0 0 40 0 40 -230 2 c-126 2
-233 3 -237 3 -5 0 -8 940 -8 2088 0 2317 5 2137 -66 2221 -72 84 -145 113
-468 187 -132 30 -500 116 -817 189 -712 166 -714 167 -869 140z m365 -245
c72 -16 292 -68 490 -115 198 -48 482 -115 631 -150 345 -81 431 -121 483
-229 l21 -42 0 -2022 c0 -1111 -3 -2023 -7 -2025 -5 -3 -23 -2 -40 0 l-33 5 0
2004 c0 2182 4 2040 -56 2096 -49 45 -132 76 -335 122 -107 25 -356 84 -554
131 -767 184 -736 178 -865 172 -105 -4 -175 -19 -818 -171 -387 -91 -729
-175 -760 -186 -66 -23 -126 -63 -156 -103 l-21 -28 -5 -2022 -5 -2021 -27 1
c-16 1 -32 1 -38 2 -7 1 -10 681 -10 2019 0 1938 1 2019 19 2057 37 81 119
141 246 180 104 32 1432 344 1510 355 84 12 180 3 330 -30z m-572 -639 c11
-10 23 -38 28 -62 4 -24 8 -504 9 -1067 l0 -1023 208 3 c249 3 306 -4 343 -42
55 -54 43 -145 -24 -194 -28 -21 -37 -21 -695 -21 -744 0 -712 -3 -746 69 -37
79 -3 157 79 177 22 5 145 10 273 10 l232 -1 0 930 c0 512 -3 930 -6 930 -4 0
-87 -18 -185 -40 -98 -22 -204 -40 -234 -40 -93 0 -145 41 -145 112 0 58 46
103 129 127 50 15 440 111 626 155 35 8 88 -3 108 -23z m692 -1226 c193 -40
371 -186 485 -398 119 -221 168 -484 157 -856 -8 -284 -44 -463 -132 -650 -66
-139 -159 -258 -265 -339 -47 -36 -152 -83 -228 -103 -93 -24 -259 -25 -351
-4 -191 45 -364 191 -471 396 -81 157 -144 400 -152 594 l-3 80 155 0 155 0 3
-50 c21 -394 143 -676 329 -763 51 -24 70 -27 158 -27 88 0 107 3 158 27 158
74 267 276 314 583 23 152 23 507 -1 663 -47 313 -156 513 -318 588 -55 25
-75 29 -153 29 -82 0 -97 -3 -157 -33 -79 -38 -147 -109 -198 -203 l-35 -64
-6 50 c-4 28 -8 121 -8 207 -1 136 1 159 16 174 28 28 154 83 224 98 85 19
237 19 324 1z"/>
<path d="M550 1624 l0 -326 120 4 120 3 32 33 c32 31 33 36 36 126 4 101 -9
145 -49 166 -20 11 -20 12 5 35 32 30 39 59 34 145 -3 59 -8 74 -29 96 -32 32
-81 43 -186 44 l-83 0 0 -326z m191 219 c9 -9 14 -40 14 -75 0 -68 -16 -88
-72 -88 l-33 0 0 90 0 90 39 0 c24 0 44 -6 52 -17z m5 -267 c16 -12 19 -27 19
-91 0 -88 -12 -105 -77 -105 l-38 0 0 105 0 105 38 0 c21 0 47 -6 58 -14z"/>
<path d="M966 1738 c62 -206 64 -216 64 -325 l0 -113 50 0 50 0 0 108 c0 103
3 118 60 308 32 110 62 208 66 218 6 15 1 17 -42 14 l-48 -3 -36 -140 c-20
-77 -41 -139 -45 -138 -5 1 -21 48 -36 105 -50 194 -38 173 -96 176 l-51 3 64
-213z"/>
<path d="M1300 1905 l0 -45 50 0 50 0 0 -280 0 -280 50 0 50 0 0 280 0 280 55
0 55 0 0 45 0 45 -155 0 -155 0 0 -45z"/>
<path d="M1680 1625 l0 -325 135 0 135 0 0 40 0 39 -87 3 -88 3 -3 98 -3 97
73 0 73 0 0 45 0 45 -73 0 -73 0 3 93 3 92 88 3 87 3 0 44 0 45 -135 0 -135 0
0 -325z"/>
<path d="M2235 1643 c-26 -170 -50 -316 -53 -325 -4 -15 3 -18 40 -18 l45 0 9
58 9 57 59 3 c32 2 63 -1 68 -6 5 -5 11 -32 15 -60 l6 -52 49 0 c47 0 50 1 45
23 -3 12 -27 158 -53 325 l-48 302 -71 0 -71 0 -49 -307z m125 165 c0 -7 9
-71 20 -142 27 -177 30 -166 -30 -166 -59 0 -57 -13 -30 165 11 72 20 136 20
143 0 6 5 12 10 12 6 0 10 -6 10 -12z"/>
<path d="M2671 1937 c-13 -6 -34 -25 -45 -40 -20 -27 -21 -43 -24 -265 -2
-211 -1 -241 15 -272 48 -94 215 -92 261 3 7 15 16 58 19 96 l6 69 -47 3 -46
4 0 -55 c0 -68 -19 -100 -60 -100 -55 0 -60 21 -60 247 0 190 1 204 20 223 46
46 100 9 100 -70 l0 -50 46 0 47 0 -7 66 c-8 80 -26 119 -66 139 -35 18 -126
20 -159 2z"/>
<path d="M3065 1938 c-2 -7 -25 -143 -50 -303 -25 -159 -48 -300 -50 -312 -5
-21 -2 -23 38 -23 l44 0 6 50 c3 28 9 55 12 60 8 13 122 13 130 0 3 -5 9 -32
12 -60 l6 -50 49 0 c49 0 49 0 44 28 -3 15 -26 155 -51 312 -25 157 -47 291
-50 298 -3 8 -27 12 -70 12 -44 0 -67 -4 -70 -12z m89 -227 c9 -60 19 -132 23
-160 l6 -51 -52 0 c-60 0 -58 -13 -31 165 11 72 20 136 20 143 0 6 4 12 9 12
4 0 16 -49 25 -109z"/>
<path d="M3390 1626 l0 -326 106 0 c120 0 153 12 179 66 21 44 22 458 1 507
-23 56 -57 70 -178 75 l-108 5 0 -327z m192 217 c16 -15 18 -35 18 -224 l0
-209 -24 -15 c-14 -9 -39 -15 -58 -13 l-33 3 -3 238 -2 237 42 0 c24 0 49 -7
60 -17z"/>
<path d="M3790 1625 l0 -325 135 0 135 0 0 40 0 39 -87 3 -88 3 -3 98 -3 97
71 0 70 0 0 45 0 45 -70 0 -70 0 0 95 0 95 90 0 90 0 0 45 0 45 -135 0 -135 0
0 -325z"/>
<path d="M4150 1625 l0 -325 40 0 40 0 0 222 c0 132 4 218 9 213 5 -6 24 -106
42 -222 l34 -213 45 0 46 0 28 193 c37 248 37 250 48 239 5 -5 7 -104 6 -220
l-3 -212 43 0 42 0 0 325 0 325 -65 0 c-36 0 -65 -3 -65 -7 -4 -60 -69 -438
-76 -440 -5 -2 -25 97 -44 220 l-35 222 -67 3 -68 3 0 -326z"/>
<path d="M4650 1938 c0 -7 27 -103 60 -213 58 -193 60 -204 60 -312 l0 -113
50 0 50 0 0 113 c0 110 2 120 60 313 33 109 60 205 60 212 0 9 -12 12 -42 10
l-41 -3 -37 -139 c-20 -77 -40 -141 -46 -143 -5 -2 -21 41 -33 94 -13 54 -30
119 -38 146 -14 47 -14 47 -58 47 -29 0 -45 -4 -45 -12z"/>
<path d="M150 920 l0 -40 274 0 274 0 4 -98 c3 -87 7 -104 34 -152 37 -66 119
-126 215 -159 35 -12 433 -108 884 -213 l820 -192 140 0 140 0 440 103 c242
56 604 140 805 187 484 112 551 135 628 212 59 59 75 103 80 215 l4 97 239 0
239 0 0 40 0 40 -2610 0 -2610 0 0 -40z m874 -67 c22 -43 65 -79 126 -107 55
-25 1368 -342 1544 -372 73 -13 104 -14 175 -4 78 10 420 89 1221 280 348 83
423 113 466 185 24 41 29 45 65 45 21 0 39 -5 39 -10 0 -24 -31 -81 -64 -117
-68 -75 -151 -104 -594 -208 -81 -19 -347 -82 -592 -140 -501 -118 -590 -133
-702 -117 -41 6 -401 89 -799 183 -728 172 -808 195 -886 255 -32 24 -75 88
-88 132 -6 20 -3 22 34 22 34 0 43 -4 55 -27z"/>
</g>
</svg>
