<?xml version="1.0" standalone="no"?>
<!DOCTYPE svg PUBLIC "-//W3C//DTD SVG 20010904//EN"
 "http://www.w3.org/TR/2001/REC-SVG-20010904/DTD/svg10.dtd">
<svg version="1.0" xmlns="http://www.w3.org/2000/svg"
 width="1522.000000pt" height="454.000000pt" viewBox="0 0 1522.000000 454.000000"
 preserveAspectRatio="xMidYMid meet">
<metadata>
Created by potrace 1.13, written by Peter Selinger 2001-2015
</metadata>
<g transform="translate(0.000000,454.000000) scale(0.100000,-0.100000)"
fill="#000000" stroke="none">
<path d="M0 4290 l0 -110 7605 0 7605 0 0 110 0 110 -7605 0 -7605 0 0 -110z"/>
<path d="M7475 3166 c-142 -46 -232 -146 -268 -299 -17 -75 -17 -1150 1 -1225
30 -131 100 -222 212 -276 63 -30 69 -31 205 -31 l141 0 76 38 c86 42 138 93
173 172 36 79 45 145 45 315 l0 160 -130 0 -130 0 0 -160 c0 -237 -17 -265
-157 -265 -80 0 -86 2 -108 28 -13 15 -29 44 -34 65 -7 23 -11 231 -11 572 0
499 2 538 19 576 10 22 31 51 47 63 25 20 38 22 101 19 120 -6 143 -43 143
-233 l0 -125 130 0 130 0 0 133 c0 252 -60 371 -230 451 -61 29 -74 31 -190
33 -83 2 -139 -2 -165 -11z"/>
<path d="M1500 2254 l0 -917 278 6 c296 6 343 12 425 60 87 51 140 126 168
237 9 37 14 114 14 235 -1 156 -4 189 -22 250 -25 81 -72 142 -139 181 l-44
26 42 28 c24 15 53 38 65 51 64 71 95 232 75 404 -14 128 -44 197 -109 254
-92 81 -195 101 -540 101 l-213 0 0 -916z m501 651 c54 -28 64 -64 64 -220 0
-204 -23 -234 -182 -243 l-83 -5 0 248 0 248 86 -7 c47 -3 99 -13 115 -21z
m37 -765 c34 -15 48 -29 65 -67 20 -43 22 -64 22 -208 0 -236 -16 -255 -212
-263 l-113 -5 0 282 0 281 98 0 c74 0 107 -5 140 -20z"/>
<path d="M2494 3153 c3 -10 84 -284 181 -610 l175 -592 0 -306 0 -305 140 0
140 0 0 306 0 307 175 591 c97 325 178 599 181 609 5 16 -5 17 -124 17 l-130
0 -102 -412 c-57 -227 -106 -416 -109 -420 -3 -4 -57 182 -120 413 l-114 419
-149 0 c-138 0 -149 -1 -144 -17z"/>
<path d="M3590 3050 l0 -119 153 -3 152 -3 3 -792 2 -793 140 0 140 0 0 785 0
785 150 0 150 0 0 130 0 130 -445 0 -445 0 0 -120z"/>
<path d="M4660 2255 l0 -915 385 0 385 0 0 130 0 130 -245 0 -245 0 0 270 0
270 190 0 190 0 0 130 0 130 -190 0 -190 0 0 255 0 255 245 0 245 0 0 130 0
130 -385 0 -385 0 0 -915z"/>
<path d="M6316 3158 c-3 -7 -66 -409 -140 -893 -75 -484 -139 -890 -141 -902
-5 -23 -5 -23 125 -23 126 0 130 1 135 23 2 12 14 76 25 142 11 66 23 130 25
143 5 22 7 22 185 22 98 0 181 -4 184 -8 2 -4 17 -79 32 -165 l27 -157 139 0
c104 0 138 3 138 13 0 11 -304 1732 -316 1790 l-6 27 -204 0 c-155 0 -206 -3
-208 -12z m294 -743 c33 -236 63 -442 66 -457 l6 -28 -146 0 c-101 0 -146 3
-146 11 0 16 139 869 146 899 4 14 8 21 10 15 2 -5 30 -203 64 -440z"/>
<path d="M8485 3148 c-2 -13 -65 -417 -140 -898 -74 -481 -137 -883 -139 -893
-4 -16 6 -17 127 -15 l131 3 22 130 c13 72 26 145 29 163 l6 32 180 0 c156 0
180 -2 186 -16 3 -9 18 -82 32 -163 l26 -146 138 -3 c126 -2 137 -1 137 15 0
10 -63 421 -140 913 -77 492 -140 896 -140 898 0 1 -101 2 -225 2 l-225 0 -5
-22z m315 -733 c33 -236 63 -442 66 -457 l6 -28 -146 0 c-89 0 -146 4 -146 10
0 15 139 871 146 900 4 14 8 21 10 15 2 -5 30 -203 64 -440z"/>
<path d="M9420 2251 l0 -922 303 3 302 3 65 31 c115 56 176 138 205 275 21
100 22 1111 1 1210 -34 159 -119 253 -271 297 -36 10 -129 15 -327 19 l-278 5
0 -921z m545 635 c13 -9 33 -28 42 -43 17 -25 18 -69 18 -589 0 -555 0 -563
-21 -591 -35 -47 -68 -57 -189 -58 l-110 0 -3 640 c-1 352 0 646 3 654 8 21
225 10 260 -13z"/>
<path d="M10550 2255 l0 -915 385 0 385 0 0 130 0 130 -247 2 -248 3 -3 268
-2 267 200 0 200 0 0 130 0 130 -197 2 -198 3 0 250 0 250 248 3 247 2 0 130
0 130 -385 0 -385 0 0 -915z"/>
<path d="M11550 2255 l0 -915 120 0 120 0 2 643 3 642 108 -615 c60 -338 111
-627 114 -642 l6 -28 128 0 c125 0 129 1 134 23 2 12 45 303 95 646 49 344 92
627 95 629 3 3 5 -288 5 -646 l0 -652 130 0 130 0 0 915 0 915 -198 0 -197 0
-95 -646 c-55 -381 -97 -638 -102 -627 -4 10 -50 288 -103 618 -53 330 -99
612 -102 628 l-5 27 -194 0 -194 0 0 -915z"/>
<path d="M12920 3164 c0 -27 356 -1201 366 -1210 11 -9 14 -69 14 -313 l0
-301 140 0 140 0 0 309 0 310 176 592 c97 325 178 598 181 606 4 11 -17 13
-127 11 l-133 -3 -109 -400 c-126 -465 -117 -435 -127 -415 -4 8 -57 196 -117
418 l-109 402 -147 0 c-82 0 -148 -3 -148 -6z"/>
<path d="M0 335 l0 -115 7605 0 7605 0 0 115 0 115 -7605 0 -7605 0 0 -115z"/>
</g>
</svg>
