<?xml version="1.0" standalone="no"?>
<!DOCTYPE svg PUBLIC "-//W3C//DTD SVG 20010904//EN"
 "http://www.w3.org/TR/2001/REC-SVG-20010904/DTD/svg10.dtd">
<svg version="1.0" xmlns="http://www.w3.org/2000/svg"
 width="554.000000pt" height="725.000000pt" viewBox="0 0 554.000000 725.000000"
 preserveAspectRatio="xMidYMid meet">
<metadata>
Created by potrace 1.13, written by Peter Selinger 2001-2015
</metadata>
<g transform="translate(0.000000,725.000000) scale(0.100000,-0.100000)"
fill="#000000" stroke="none">
<path d="M0 3625 l0 -3625 2770 0 2770 0 0 3625 0 3625 -2770 0 -2770 0 0
-3625z m2894 3575 c38 -6 328 -71 645 -145 317 -73 685 -159 817 -189 323 -74
396 -103 468 -187 71 -84 66 96 66 -2221 0 -1148 3 -2088 8 -2088 4 0 111 -1
237 -3 l230 -2 0 -40 0 -40 -2605 0 -2605 0 0 40 0 40 270 2 270 2 5 2103 5
2103 23 47 c32 65 99 121 189 158 46 19 218 65 437 115 1523 352 1391 326
1540 305z m-2140 -5260 c22 -5 51 -20 65 -34 21 -22 26 -37 29 -96 5 -86 -2
-115 -34 -145 -25 -23 -25 -24 -5 -35 40 -21 53 -65 49 -166 -3 -90 -4 -95
-36 -126 l-32 -33 -120 -3 -120 -4 0 326 0 326 83 0 c45 0 100 -5 121 -10z
m259 -30 c5 -19 22 -81 36 -138 15 -57 31 -104 36 -105 4 -1 25 61 45 138 l36
140 48 3 c43 3 48 1 42 -14 -4 -10 -34 -108 -66 -218 -57 -190 -60 -205 -60
-308 l0 -108 -50 0 -50 0 0 113 c0 109 -2 119 -64 325 l-64 213 51 -3 c49 -3
51 -4 60 -38z m597 -5 l0 -45 -55 0 -55 0 0 -280 0 -280 -50 0 -50 0 0 280 0
280 -50 0 -50 0 0 45 0 45 155 0 155 0 0 -45z m340 0 l0 -44 -87 -3 -88 -3 -3
-92 -3 -93 73 0 73 0 0 -45 0 -45 -73 0 -73 0 3 -97 3 -98 88 -3 87 -3 0 -39
0 -40 -135 0 -135 0 0 325 0 325 135 0 135 0 0 -45z m524 -257 c26 -167 50
-313 53 -325 5 -22 2 -23 -45 -23 l-49 0 -6 52 c-4 28 -10 55 -15 60 -5 5 -36
8 -68 6 l-59 -3 -9 -57 -9 -58 -45 0 c-37 0 -44 3 -40 18 3 9 27 155 53 325
l49 307 71 0 71 0 48 -302z m356 287 c40 -20 58 -59 66 -139 l7 -66 -47 0 -46
0 0 50 c0 55 -23 90 -60 90 -11 0 -29 -9 -40 -20 -19 -19 -20 -33 -20 -223 0
-226 5 -247 60 -247 41 0 60 32 60 100 l0 55 46 -4 47 -3 -6 -69 c-3 -38 -12
-81 -19 -96 -46 -95 -213 -97 -261 -3 -16 31 -17 61 -15 272 3 222 4 238 24
265 11 15 32 34 45 40 33 18 124 16 159 -2z m375 3 c3 -7 25 -141 50 -298 25
-157 48 -297 51 -312 5 -28 5 -28 -44 -28 l-49 0 -6 50 c-3 28 -9 55 -12 60
-8 13 -122 13 -130 0 -3 -5 -9 -32 -12 -60 l-6 -50 -44 0 c-40 0 -43 2 -38 23
2 12 25 153 50 312 25 160 48 296 50 303 3 8 26 12 70 12 43 0 67 -4 70 -12z
m429 -13 c51 -33 56 -63 56 -306 0 -243 -5 -270 -59 -302 -23 -13 -53 -17
-135 -17 l-106 0 0 326 0 327 108 -5 c83 -3 114 -9 136 -23z m426 -20 l0 -45
-90 0 -90 0 0 -95 0 -95 70 0 70 0 0 -45 0 -45 -70 0 -71 0 3 -97 3 -98 88 -3
87 -3 0 -39 0 -40 -135 0 -135 0 0 325 0 325 135 0 135 0 0 -45z m260 -182
c19 -123 39 -222 44 -220 7 2 72 380 76 440 0 4 29 7 65 7 l65 0 0 -325 0
-325 -42 0 -43 0 3 212 c1 116 -1 215 -6 220 -11 11 -11 9 -48 -239 l-28 -193
-46 0 -45 0 -34 213 c-18 116 -37 216 -42 222 -5 5 -9 -81 -9 -213 l0 -222
-40 0 -40 0 0 325 0 326 68 -3 67 -3 35 -222z m433 180 c8 -27 25 -92 38 -146
12 -53 28 -96 33 -94 6 2 26 66 46 143 l37 139 41 3 c30 2 42 -1 42 -10 0 -7
-27 -103 -60 -212 -58 -193 -60 -203 -60 -313 l0 -113 -50 0 -50 0 0 113 c0
108 -2 119 -60 312 -33 110 -60 206 -60 213 0 8 16 12 45 12 44 0 44 0 58 -47z
m617 -983 l0 -40 -239 0 -239 0 -4 -97 c-5 -112 -21 -156 -80 -215 -77 -77
-144 -100 -628 -212 -201 -47 -563 -131 -805 -187 l-440 -103 -140 0 -140 0
-820 192 c-451 105 -849 201 -884 213 -96 33 -178 93 -215 159 -27 48 -31 65
-34 152 l-4 98 -274 0 -274 0 0 40 0 40 2610 0 2610 0 0 -40z"/>
<path d="M2705 6980 c-78 -11 -1406 -323 -1510 -355 -127 -39 -209 -99 -246
-180 -18 -38 -19 -119 -19 -2057 0 -1338 3 -2018 10 -2019 6 -1 22 -1 38 -2
l27 -1 5 2021 5 2022 21 28 c30 40 90 80 156 103 31 11 373 95 760 186 643
152 713 167 818 171 129 6 98 12 865 -172 198 -47 447 -106 554 -131 203 -46
286 -77 335 -122 60 -56 56 86 56 -2096 l0 -2004 33 -5 c17 -2 35 -3 40 0 4 2
7 914 7 2025 l0 2022 -21 42 c-52 108 -138 148 -483 229 -149 35 -433 102
-631 150 -629 151 -694 162 -820 145z"/>
<path d="M2355 6334 c-186 -44 -576 -140 -626 -155 -83 -24 -129 -69 -129
-127 0 -71 52 -112 145 -112 30 0 136 18 234 40 98 22 181 40 185 40 3 0 6
-418 6 -930 l0 -930 -232 1 c-128 0 -251 -5 -273 -10 -82 -20 -116 -98 -79
-177 34 -72 2 -69 746 -69 658 0 667 0 695 21 67 49 79 140 24 194 -37 38 -94
45 -343 42 l-208 -3 0 1023 c-1 563 -5 1043 -9 1067 -5 24 -17 52 -28 62 -20
20 -73 31 -108 23z"/>
<path d="M2831 5084 c-70 -15 -196 -70 -224 -98 -15 -15 -17 -38 -16 -174 0
-86 4 -179 8 -207 l6 -50 35 64 c51 94 119 165 198 203 60 30 75 33 157 33 78
0 98 -4 153 -29 162 -75 271 -275 318 -588 24 -156 24 -511 1 -663 -47 -307
-156 -509 -314 -583 -51 -24 -70 -27 -158 -27 -88 0 -107 3 -158 27 -186 87
-308 369 -329 763 l-3 50 -155 0 -155 0 3 -80 c8 -194 71 -437 152 -594 81
-155 210 -286 345 -351 179 -85 434 -81 616 11 147 74 266 204 354 390 88 187
124 366 132 650 11 372 -38 635 -157 856 -114 212 -292 358 -485 398 -87 18
-239 18 -324 -1z"/>
<path d="M650 1770 l0 -90 33 0 c56 0 72 20 72 88 0 73 -14 92 -66 92 l-39 0
0 -90z"/>
<path d="M650 1485 l0 -105 38 0 c65 0 77 17 77 105 0 88 -12 105 -77 105
l-38 0 0 -105z"/>
<path d="M2340 1808 c0 -7 -9 -71 -20 -143 -27 -178 -29 -165 30 -165 60 0 57
-11 30 166 -11 71 -20 135 -20 142 0 6 -4 12 -10 12 -5 0 -10 -6 -10 -12z"/>
<path d="M3120 1808 c0 -7 -9 -71 -20 -143 -27 -178 -29 -165 31 -165 l52 0
-6 51 c-16 129 -41 269 -48 269 -5 0 -9 -6 -9 -12z"/>
<path d="M3482 1623 l3 -238 33 -3 c19 -2 44 4 58 13 l24 15 0 209 c0 237 -1
241 -78 241 l-42 0 2 -237z"/>
<path d="M935 858 c13 -44 56 -108 88 -132 78 -60 158 -83 886 -255 398 -94
758 -177 799 -183 112 -16 201 -1 702 117 245 58 511 121 592 140 443 104 526
133 594 208 33 36 64 93 64 117 0 5 -18 10 -39 10 -36 0 -41 -4 -65 -45 -43
-72 -118 -102 -466 -185 -801 -191 -1143 -270 -1221 -280 -71 -10 -102 -9
-175 4 -176 30 -1489 347 -1544 372 -61 28 -104 64 -126 107 -12 23 -21 27
-55 27 -37 0 -40 -2 -34 -22z"/>
</g>
</svg>
