<?xml version="1.0" encoding="UTF-8" ?>
<!DOCTYPE svg PUBLIC "-//W3C//DTD SVG 1.1//EN" "http://www.w3.org/Graphics/SVG/1.1/DTD/svg11.dtd">
<svg width="742pt" height="960pt" viewBox="0 0 742 960" version="1.1" xmlns="http://www.w3.org/2000/svg">
<path fill="#ffffff" d=" M 0.00 0.00 L 742.00 0.00 L 742.00 960.00 L 0.00 960.00 L 0.00 0.00 Z" />
<path fill="#6a6868" d=" M 349.83 125.60 C 364.22 121.77 379.45 120.72 394.02 124.23 C 445.69 136.02 497.20 148.47 548.92 160.01 C 559.60 162.57 570.78 166.26 578.37 174.62 C 582.58 179.38 585.16 185.63 585.11 192.02 C 585.12 330.06 585.09 468.10 585.13 606.14 C 601.05 606.18 616.97 606.10 632.89 606.19 C 632.88 609.08 632.88 611.98 632.90 614.88 C 458.64 614.85 284.39 614.84 110.13 614.89 C 110.14 611.98 110.14 609.08 110.14 606.19 C 128.37 606.09 146.60 606.20 164.82 606.14 C 164.89 467.75 164.84 329.36 164.85 190.97 C 164.85 182.69 169.68 175.02 176.30 170.30 C 185.64 163.47 197.11 160.74 208.20 158.22 C 255.37 147.15 302.68 136.73 349.83 125.60 Z" />
<path fill="#ffffff" d=" M 357.56 146.83 C 369.93 143.85 382.88 144.38 395.17 147.46 C 437.20 157.07 479.00 167.64 521.04 177.19 C 531.39 179.50 542.27 181.61 550.98 188.07 C 557.28 192.62 561.76 200.07 561.47 208.00 C 561.34 340.72 561.60 473.44 561.34 606.16 C 558.93 606.15 556.53 606.12 554.13 606.10 C 554.05 476.07 554.12 346.04 554.10 216.01 C 553.97 210.19 555.05 203.69 551.32 198.68 C 545.83 191.21 536.35 188.42 527.77 186.26 C 482.01 176.03 436.57 164.41 390.84 154.05 C 382.87 152.22 374.60 151.75 366.48 152.73 C 359.90 153.63 353.46 155.31 347.01 156.81 C 306.39 166.39 265.76 175.86 225.15 185.46 C 217.02 187.36 208.64 189.71 202.00 195.00 C 198.39 197.91 195.73 202.28 195.82 207.02 C 195.82 340.05 195.83 473.09 195.82 606.13 C 193.37 606.13 190.92 606.11 188.48 606.06 C 188.50 473.02 188.50 339.99 188.48 206.96 C 188.31 199.83 192.37 193.17 197.88 188.89 C 205.43 183.01 214.82 180.30 224.01 178.16 C 268.52 167.70 313.02 157.18 357.56 146.83 Z" />
<path fill="#f4dd9f" d=" M 324.96 211.14 C 329.71 210.19 334.89 208.57 339.60 210.43 C 344.40 213.04 344.25 219.29 344.44 224.03 C 344.45 291.67 344.45 359.32 344.44 426.97 C 359.91 427.79 375.44 425.64 390.86 427.53 C 394.99 428.04 399.85 428.97 402.06 432.94 C 404.87 438.37 403.95 446.17 398.68 449.80 C 394.03 452.74 388.27 452.35 383.00 452.50 C 346.01 452.51 309.02 452.51 272.03 452.50 C 267.29 452.38 262.21 452.55 257.96 450.14 C 252.06 446.38 250.76 437.39 254.80 431.84 C 257.08 428.89 261.03 428.25 264.49 427.72 C 280.52 425.63 296.70 427.68 312.78 426.96 C 313.10 364.79 312.71 302.63 312.96 240.47 C 300.47 242.44 288.36 246.25 275.90 248.35 C 271.41 249.02 266.61 249.57 262.28 247.87 C 258.28 246.37 255.17 242.36 255.33 238.00 C 255.32 233.46 258.34 229.29 262.33 227.33 C 266.95 225.06 272.09 224.25 277.03 223.02 C 293.03 219.14 309.04 215.34 324.96 211.14 Z" />
<path fill="#f4dd9f" d=" M 362.57 340.63 C 378.32 332.51 397.10 331.17 414.14 335.54 C 430.13 339.65 443.42 350.85 452.81 364.13 C 463.32 379.08 469.43 396.77 472.31 414.73 C 475.56 434.97 475.88 455.61 474.14 476.01 C 471.99 498.03 466.20 520.23 453.79 538.80 C 445.20 551.88 432.68 562.82 417.56 567.51 C 401.74 572.35 384.15 572.57 368.65 566.44 C 353.73 560.65 341.76 548.92 333.66 535.32 C 320.43 513.53 316.00 487.75 314.75 462.63 C 324.97 462.61 335.18 462.67 345.40 462.60 C 346.47 481.39 348.29 500.63 356.00 518.03 C 360.29 527.86 366.63 537.36 376.14 542.78 C 388.33 549.73 404.50 549.02 416.10 541.15 C 426.62 533.78 432.94 521.91 437.01 510.01 C 443.21 491.02 444.69 470.85 444.69 450.99 C 444.34 431.27 442.93 411.19 436.30 392.46 C 432.16 381.22 425.94 370.13 415.96 363.11 C 405.58 355.71 391.34 354.92 379.75 359.82 C 368.19 365.07 360.59 376.10 355.55 387.36 C 354.87 375.58 355.45 363.77 355.20 351.99 C 355.21 349.75 354.95 347.48 355.42 345.28 C 357.39 343.18 360.06 341.94 362.57 340.63 Z" />
<path fill="#6a6868" d=" M 363.12 648.37 C 369.51 646.15 378.03 646.71 382.38 652.52 C 386.17 657.59 385.43 664.26 385.49 670.21 C 382.21 670.21 378.93 670.21 375.66 670.22 C 375.57 666.73 376.00 663.16 375.12 659.75 C 373.97 656.19 368.53 655.54 366.29 658.37 C 364.96 659.93 365.20 662.11 365.11 664.02 C 365.15 675.35 365.14 686.67 365.11 698.00 C 365.18 699.44 365.08 700.99 365.69 702.36 C 367.52 706.19 374.53 705.67 375.29 701.27 C 376.00 697.27 375.55 693.17 375.65 689.14 C 378.93 689.17 382.20 689.17 385.48 689.15 C 385.26 695.44 386.46 702.32 383.12 708.03 C 380.90 712.01 376.36 714.15 371.94 714.38 C 367.27 714.77 362.10 713.87 358.72 710.39 C 355.56 707.10 354.56 702.37 354.60 697.94 C 354.63 686.30 354.60 674.67 354.62 663.03 C 354.48 657.12 357.21 650.51 363.12 648.37 Z" />
<path fill="#6a6868" d=" M 149.76 647.92 C 156.81 648.13 163.93 647.37 170.93 648.50 C 176.02 649.35 179.97 653.85 180.45 658.95 C 181.14 665.81 181.51 674.71 174.55 678.64 C 178.80 680.77 181.50 685.16 181.62 689.90 C 181.77 695.33 182.46 701.15 180.20 706.27 C 178.14 710.96 172.98 713.51 168.04 713.60 C 161.95 713.80 155.86 713.57 149.77 713.70 C 149.75 691.77 149.76 669.84 149.76 647.92 Z" />
<path fill="#6a6868" d=" M 184.94 647.92 C 188.58 647.89 192.23 647.89 195.88 648.06 C 198.49 657.92 200.94 667.83 203.78 677.63 C 206.18 667.72 208.95 657.90 211.46 648.02 C 214.80 647.90 218.14 647.90 221.48 647.91 C 217.25 662.43 212.73 676.88 208.65 691.45 C 208.08 698.82 208.55 706.26 208.45 713.66 C 204.99 713.66 201.53 713.67 198.07 713.71 C 198.15 708.46 197.86 703.21 197.93 697.97 C 197.94 694.95 198.10 691.87 197.14 688.97 C 193.04 675.30 188.97 661.61 184.94 647.92 Z" />
<path fill="#6a6868" d=" M 224.33 647.94 C 234.99 647.89 245.65 647.93 256.31 647.92 C 256.33 651.11 256.33 654.30 256.35 657.50 C 252.74 657.49 249.13 657.49 245.52 657.46 C 245.56 676.20 245.51 694.95 245.55 713.69 C 242.07 713.66 238.58 713.66 235.10 713.66 C 235.19 694.94 235.11 676.22 235.14 657.49 C 231.52 657.48 227.90 657.49 224.28 657.50 C 224.32 654.31 224.32 651.12 224.33 647.94 Z" />
<path fill="#6a6868" d=" M 262.61 647.91 C 272.01 647.92 281.40 647.92 290.80 647.92 C 290.82 651.10 290.83 654.30 290.86 657.50 C 284.90 657.50 278.94 657.46 272.99 657.51 C 273.20 663.55 273.10 669.59 273.09 675.63 C 277.81 675.62 282.52 675.62 287.25 675.62 C 287.24 678.79 287.24 681.97 287.25 685.15 C 282.52 685.16 277.80 685.16 273.09 685.14 C 273.12 691.50 273.12 697.87 273.10 704.24 C 279.01 704.25 284.93 704.25 290.84 704.23 C 290.83 707.37 290.83 710.52 290.84 713.67 C 281.41 713.63 271.97 713.71 262.54 713.63 C 262.67 691.72 262.53 669.82 262.61 647.91 Z" />
<path fill="#6a6868" d=" M 323.18 648.03 C 328.23 647.84 333.28 647.93 338.34 647.91 C 341.92 669.82 345.37 691.75 348.90 713.67 C 345.40 713.66 341.90 713.66 338.40 713.70 C 337.77 709.72 337.19 705.74 336.62 701.76 C 332.41 701.74 328.21 701.73 324.01 701.77 C 323.46 705.75 322.84 709.73 322.24 713.71 C 319.03 713.66 315.83 713.66 312.62 713.67 C 316.24 691.80 319.64 669.91 323.18 648.03 Z" />
<path fill="#6a6868" d=" M 401.35 647.92 C 406.40 647.91 411.45 647.89 416.50 647.96 C 419.99 669.86 423.53 691.76 427.01 713.66 C 423.51 713.66 420.01 713.66 416.52 713.69 C 415.84 709.80 415.53 705.85 414.66 702.01 C 410.52 701.41 406.32 701.86 402.17 701.75 C 401.55 705.73 400.98 709.71 400.37 713.69 C 397.16 713.67 393.95 713.66 390.74 713.64 C 394.38 691.75 397.73 669.82 401.35 647.92 Z" />
<path fill="#6a6868" d=" M 433.55 647.91 C 440.90 648.21 448.36 647.21 455.62 648.65 C 461.62 650.04 465.22 656.15 465.27 662.03 C 465.49 673.69 465.28 685.36 465.37 697.02 C 465.45 702.07 464.30 707.80 459.95 710.95 C 455.99 713.97 450.77 713.72 446.05 713.68 C 441.89 713.64 437.73 713.64 433.57 713.75 C 433.48 691.80 433.52 669.85 433.55 647.91 Z" />
<path fill="#6a6868" d=" M 473.73 647.91 C 483.10 647.92 492.48 647.91 501.86 647.92 C 501.89 651.10 501.90 654.29 501.95 657.48 C 496.01 657.50 490.08 657.49 484.15 657.47 C 484.20 663.52 484.19 669.57 484.16 675.63 C 488.86 675.62 493.57 675.62 498.27 675.61 C 498.26 678.79 498.26 681.97 498.27 685.15 C 493.57 685.16 488.87 685.16 484.17 685.13 C 484.19 691.50 484.19 697.87 484.17 704.24 C 490.08 704.25 496.00 704.24 501.91 704.23 C 501.90 707.38 501.89 710.53 501.89 713.69 C 492.50 713.65 483.11 713.63 473.72 713.70 C 473.71 691.77 473.69 669.84 473.73 647.91 Z" />
<path fill="#6a6868" d=" M 509.97 647.97 C 514.69 647.97 519.42 647.74 524.15 648.00 C 527.35 663.00 529.08 678.37 531.92 693.48 C 534.63 678.39 536.61 663.17 538.92 648.02 C 543.75 647.86 548.59 647.92 553.43 647.91 C 553.45 669.86 553.51 691.80 553.40 713.75 C 550.11 713.66 546.81 713.65 543.52 713.65 C 543.45 698.47 543.83 683.28 543.38 668.11 C 541.10 683.30 538.89 698.50 536.53 713.68 C 533.26 713.62 529.96 713.92 526.72 713.46 C 524.13 698.54 521.56 683.59 519.49 668.59 C 518.69 683.60 519.38 698.66 519.13 713.69 C 516.08 713.66 513.02 713.66 509.98 713.66 C 509.89 691.76 509.91 669.86 509.97 647.97 Z" />
<path fill="#6a6868" d=" M 559.29 647.90 C 562.91 647.92 566.53 647.92 570.15 647.91 C 572.90 657.72 575.20 667.66 578.08 677.43 C 580.76 667.61 583.23 657.74 585.89 647.92 C 589.20 647.91 592.51 647.91 595.83 647.91 C 591.64 662.34 587.16 676.70 583.07 691.16 C 582.32 698.62 582.94 706.17 582.78 713.68 C 579.29 713.66 575.80 713.66 572.32 713.69 C 572.11 706.12 572.79 698.49 572.00 690.96 C 567.91 676.57 563.46 662.28 559.29 647.90 Z" />
<path fill="#ffffff" d=" M 160.19 657.45 C 163.39 657.72 168.22 656.33 169.72 660.21 C 170.71 663.92 170.74 668.05 169.66 671.75 C 168.07 675.48 163.43 674.52 160.20 674.73 C 160.23 668.96 160.25 663.20 160.19 657.45 Z" />
<path fill="#ffffff" d=" M 443.97 657.47 C 446.69 657.55 449.49 657.16 452.15 657.85 C 454.58 658.84 454.92 661.69 454.87 663.97 C 454.85 675.33 454.87 686.69 454.86 698.05 C 454.96 700.31 454.30 703.05 451.93 703.91 C 449.35 704.50 446.68 704.21 444.07 704.26 C 443.99 688.66 444.22 673.06 443.97 657.47 Z" />
<path fill="#ffffff" d=" M 325.32 692.80 C 327.06 681.95 328.56 671.07 330.18 660.21 C 332.11 671.02 333.41 681.94 335.22 692.77 C 331.92 692.75 328.62 692.76 325.32 692.80 Z" />
<path fill="#ffffff" d=" M 403.46 692.80 C 405.06 681.94 406.87 671.11 408.19 660.22 C 410.32 671.01 411.51 681.96 413.33 692.80 C 410.04 692.75 406.75 692.76 403.46 692.80 Z" />
<path fill="#ffffff" d=" M 160.22 684.15 C 163.75 684.41 168.97 683.11 170.67 687.30 C 171.82 691.70 171.55 696.45 171.00 700.95 C 169.63 705.61 163.83 703.99 160.21 704.25 C 160.24 697.55 160.23 690.85 160.22 684.15 Z" />
<path fill="#6a6868" d=" M 110.14 746.48 C 284.38 746.40 458.62 746.44 632.86 746.47 C 632.88 749.41 632.88 752.36 632.93 755.32 C 617.00 755.27 601.06 755.31 585.13 755.30 C 585.01 760.20 585.30 765.11 584.99 770.02 C 584.41 777.33 580.31 784.06 574.58 788.51 C 567.19 794.29 558.05 797.16 549.09 799.43 C 505.82 809.76 462.40 819.46 419.09 829.63 C 403.56 832.92 388.12 838.07 372.06 837.43 C 365.07 837.34 358.20 835.86 351.42 834.32 C 300.64 822.35 249.73 810.98 198.97 798.97 C 187.23 795.89 174.29 791.21 167.99 780.04 C 163.46 772.56 165.17 763.58 164.84 755.30 C 146.60 755.30 128.35 755.27 110.11 755.32 C 110.15 752.37 110.14 749.42 110.14 746.48 Z" />
<path fill="#ffffff" d=" M 188.48 755.45 C 190.94 755.32 193.40 755.27 195.87 755.23 C 199.34 765.74 210.64 769.90 220.40 772.41 C 266.02 783.20 311.63 794.07 357.28 804.72 C 363.10 806.11 369.04 807.02 375.03 807.06 C 385.42 806.83 395.53 804.16 405.59 801.83 C 441.72 793.30 477.85 784.77 513.96 776.15 C 523.85 773.60 534.18 772.09 543.30 767.25 C 548.30 764.81 552.06 760.42 554.00 755.25 C 556.42 755.26 558.85 755.30 561.28 755.35 C 560.01 761.92 556.00 767.76 550.45 771.47 C 543.18 776.45 534.55 778.84 526.06 780.83 C 487.69 789.99 449.29 799.03 410.91 808.15 C 394.29 812.10 377.00 816.88 359.90 812.81 C 316.54 802.94 273.33 792.39 230.01 782.28 C 218.66 779.54 206.50 777.40 197.21 769.78 C 192.69 766.21 189.93 760.94 188.48 755.45 Z" />
</svg>
